<?xml version="1.0" standalone="no"?>
<!DOCTYPE svg PUBLIC "-//W3C//DTD SVG 20010904//EN"
 "http://www.w3.org/TR/2001/REC-SVG-20010904/DTD/svg10.dtd">
<svg version="1.0" xmlns="http://www.w3.org/2000/svg"
 width="950.000000pt" height="1280.000000pt" viewBox="0 0 950.000000 1280.000000"
 preserveAspectRatio="xMidYMid meet">
<g transform="translate(0.000000,1280.000000) scale(0.100000,-0.100000)"
fill="#ff5722" stroke="none">
<path d="M2360 12656 l-255 -144 3 -68 c3 -87 34 -201 74 -276 39 -74 145
-187 291 -313 132 -113 146 -135 216 -338 76 -222 165 -640 196 -922 2 -16 10
-86 19 -155 48 -393 70 -841 70 -1450 -1 -1391 -143 -2960 -354 -3890 -73
-324 -172 -654 -242 -811 l-29 -66 -55 53 c-127 124 -308 216 -511 258 -174
37 -430 29 -617 -18 -584 -149 -1023 -747 -1143 -1561 -22 -149 -24 -522 -4
-665 62 -448 207 -841 440 -1192 448 -674 1146 -1061 1976 -1095 533 -21 1028
129 1445 440 121 91 333 303 431 432 255 335 449 788 501 1167 7 49 15 88 18
88 3 0 13 -13 23 -29 33 -57 153 -198 267 -314 449 -461 1009 -736 1624 -798
152 -15 524 -6 661 16 358 57 703 178 954 334 217 134 445 341 587 531 346
463 529 1037 551 1730 20 656 -111 1182 -403 1620 -217 326 -484 566 -797 715
-200 96 -380 142 -592 152 -409 19 -797 -166 -1065 -506 -35 -45 -67 -78 -71
-74 -4 5 -50 100 -104 213 -305 646 -721 1418 -1036 1922 -440 704 -1306 1873
-2046 2761 -118 142 -173 215 -173 232 0 39 -49 310 -82 455 -71 313 -165 575
-264 741 -30 48 -74 134 -99 191 -27 61 -58 114 -75 130 -47 43 -70 88 -70
136 0 54 20 95 77 153 l44 46 -61 154 c-34 85 -63 155 -64 156 -1 1 -116 -63
-256 -141z m1040 -2685 c501 -608 1031 -1306 1305 -1721 138 -210 172 -270
795 -1400 299 -542 585 -1061 637 -1154 52 -92 93 -170 91 -172 -2 -2 -37 8
-78 22 -372 125 -896 25 -1235 -236 -77 -60 -223 -214 -284 -300 -137 -195
-240 -445 -296 -715 -9 -44 -18 -90 -21 -102 -4 -20 -12 -14 -76 53 -100 105
-223 195 -353 259 -146 72 -238 95 -400 102 -232 10 -455 -39 -661 -146 -65
-33 -93 -43 -89 -32 41 105 141 483 189 711 175 831 299 2104 357 3661 11 293
6 1143 -7 1269 -7 66 -17 73 126 -99z"/>
</g>
</svg>
